# xmcd
#
# Track frame offsets:
#	150
#	18017
#	40682
#	61850
#	82157
#	105097
#	120012
#	139122
#	160402
#	179435
#	203622
#	222435
#	242597
#	262082
#	284640
#	307800
#
# Disc length: 4400 seconds
#
# Revision: 1111021745
# Processed by: cddbd v1.5.2PL0 Copyright (c) Steve Scherf et al.
# Submitted via: EZCDAudioConverter 8.0.2.1
#
DISCID=d2112e10
DTITLE=Various Artist - st. Ngô Thụy Miên
DYEAR=1988
DGENRE=
TTITLE0=Khánh Hà - Mùa thu cho em
TTITLE1=Kiều Nga - Giáng ngọc
TTITLE2=Thiên Phượng - Tình khúc tháng sáu
TTITLE3=Duy Quang - Chiều nay không có em
TTITLE4=Khánh Ly - Niệm khúc cuối
TTITLE5=Elvis Phương - Paris có gì lạ không em
TTITLE6=Như Mai - Tuổi 13
TTITLE7=Xuân Sơn - Mắt thu
TTITLE8=Sĩ Phú - Tình khúc mùa xuân
TTITLE9=Khánh Hà - Từ giọng hát em
TTITLE10=Duy Quang - Tình khúc buồn
TTITLE11=Kiều Nga - Bản tình cuối
TTITLE12=Thiên Phượng - Giọt nước mắt ngà
TTITLE13=Như Mai - Giọt nắng hồng
TTITLE14=Sĩ Phú - Mắt biếc
TTITLE15=Elvis Phương - Áo lụa Hà Đông
EXTD=
EXTT0=
EXTT1=
EXTT2=
EXTT3=
EXTT4=
EXTT5=
EXTT6=
EXTT7=
EXTT8=
EXTT9=
EXTT10=
EXTT11=
EXTT12=
EXTT13=
EXTT14=
EXTT15=
PLAYORDER=
